<?xml version="1.0" encoding="UTF-8" standalone="no"?><svg xmlns="http://www.w3.org/2000/svg" xmlns:xlink="http://www.w3.org/1999/xlink" contentScriptType="application/ecmascript" contentStyleType="text/css" height="632px" preserveAspectRatio="none" style="width:315px;height:632px;" version="1.1" viewBox="0 0 315 632" width="315px" zoomAndPan="magnify"><defs><filter height="300%" id="fficy7izj3ah1" width="300%" x="-1" y="-1"><feGaussianBlur result="blurOut" stdDeviation="2.0"/><feColorMatrix in="blurOut" result="blurOut2" type="matrix" values="0 0 0 0 0 0 0 0 0 0 0 0 0 0 0 0 0 0 .4 0"/><feOffset dx="4.0" dy="4.0" in="blurOut2" result="blurOut3"/><feBlend in="SourceGraphic" in2="blurOut3" mode="normal"/></filter></defs><g><rect fill="#FEFECE" filter="url(#fficy7izj3ah1)" height="50" rx="12.5" ry="12.5" style="stroke: #A80036; stroke-width: 1.5;" width="50" x="177" y="89"/><line style="stroke: #A80036; stroke-width: 1.5;" x1="177" x2="227" y1="116.6094" y2="116.6094"/><text fill="#000000" font-family="sans-serif" font-size="14" lengthAdjust="spacingAndGlyphs" textLength="0" x="204" y="108.5332"/><rect fill="#FEFECE" filter="url(#fficy7izj3ah1)" height="50" rx="12.5" ry="12.5" style="stroke: #A80036; stroke-width: 1.5;" width="50" x="6" y="217"/><line style="stroke: #A80036; stroke-width: 1.5;" x1="6" x2="56" y1="244.6094" y2="244.6094"/><text fill="#000000" font-family="sans-serif" font-size="14" lengthAdjust="spacingAndGlyphs" textLength="0" x="33" y="236.5332"/><rect fill="#FEFECE" filter="url(#fficy7izj3ah1)" height="50" rx="12.5" ry="12.5" style="stroke: #A80036; stroke-width: 1.5;" width="50" x="97" y="345"/><line style="stroke: #A80036; stroke-width: 1.5;" x1="97" x2="147" y1="372.6094" y2="372.6094"/><text fill="#000000" font-family="sans-serif" font-size="14" lengthAdjust="spacingAndGlyphs" textLength="0" x="124" y="364.5332"/><rect fill="#FEFECE" filter="url(#fficy7izj3ah1)" height="50" rx="12.5" ry="12.5" style="stroke: #A80036; stroke-width: 1.5;" width="50" x="181" y="473"/><line style="stroke: #A80036; stroke-width: 1.5;" x1="181" x2="231" y1="500.6094" y2="500.6094"/><text fill="#000000" font-family="sans-serif" font-size="14" lengthAdjust="spacingAndGlyphs" textLength="0" x="208" y="492.5332"/><ellipse cx="202" cy="18" fill="#000000" filter="url(#fficy7izj3ah1)" rx="10" ry="10" style="stroke: none; stroke-width: 1.0;"/><ellipse cx="206" cy="611" fill="none" filter="url(#fficy7izj3ah1)" rx="10" ry="10" style="stroke: #000000; stroke-width: 1.0;"/><ellipse cx="206.5" cy="611.5" fill="#000000" rx="6" ry="6" style="stroke: none; stroke-width: 1.0;"/><!--link *start to State0--><path d="M202,28.013 C202,40.698 202,64.409 202,83.57 " fill="none" id="*start-State0" style="stroke: #A80036; stroke-width: 1.0;"/><polygon fill="#A80036" points="202,88.84,206,79.84,202,83.84,198,79.84,202,88.84" style="stroke: #A80036; stroke-width: 1.0;"/><!--link State0 to State1--><path d="M176.768,133.592 C145.738,156.456 93.1597,195.198 60.3523,219.372 " fill="none" id="State0-State1" style="stroke: #A80036; stroke-width: 1.0;"/><polygon fill="#A80036" points="56.0566,222.537,65.675,220.4189,60.082,219.5712,60.9297,213.9782,56.0566,222.537" style="stroke: #A80036; stroke-width: 1.0;"/><text fill="#000000" font-family="sans-serif" font-size="13" lengthAdjust="spacingAndGlyphs" textLength="28" x="128" y="183.4951">Start</text><!--link State1 to State1--><path d="M56.2777,231.172 C73.7734,227.891 91,231.5 91,242 C91,251.434 77.0949,255.305 61.5823,253.615 " fill="none" id="State1-State1" style="stroke: #A80036; stroke-width: 1.0;"/><polygon fill="#A80036" points="56.2777,252.828,64.5938,258.1046,61.2236,253.5613,65.767,250.1911,56.2777,252.828" style="stroke: #A80036; stroke-width: 1.0;"/><text fill="#000000" font-family="sans-serif" font-size="13" lengthAdjust="spacingAndGlyphs" textLength="120" x="97" y="247.4951">ProposeCombination</text><!--link State1 to State2--><path d="M48.5457,267.294 C63.6526,288.211 85.4721,318.423 101.404,340.482 " fill="none" id="State1-State2" style="stroke: #A80036; stroke-width: 1.0;"/><polygon fill="#A80036" points="104.5081,344.781,102.4797,335.1433,101.5799,340.7281,95.9951,339.8284,104.5081,344.781" style="stroke: #A80036; stroke-width: 1.0;"/><text fill="#000000" font-family="sans-serif" font-size="13" lengthAdjust="spacingAndGlyphs" textLength="122" x="83" y="311.4951">[isWinner || isLooser]</text><!--link State2 to State3--><path d="M138.196,395.294 C152.141,416.211 172.282,446.423 186.988,468.482 " fill="none" id="State2-State3" style="stroke: #A80036; stroke-width: 1.0;"/><polygon fill="#A80036" points="189.854,472.781,188.1907,463.0736,187.0808,468.6205,181.5339,467.5107,189.854,472.781" style="stroke: #A80036; stroke-width: 1.0;"/><text fill="#000000" font-family="sans-serif" font-size="13" lengthAdjust="spacingAndGlyphs" textLength="48" x="171" y="439.4951">Resume</text><!--link State3 to State0--><path d="M218.151,472.887 C222.119,463.764 226.015,453.133 228,443 C229.538,435.149 228.077,433 228,425 C227.111,332.543 234.686,308.842 224,217 C221.105,192.117 214.918,164.355 209.841,144.084 " fill="none" id="State3-State0" style="stroke: #A80036; stroke-width: 1.0;"/><polygon fill="#A80036" points="208.577,139.098,206.9109,148.8049,209.8055,143.9447,214.6656,146.8394,208.577,139.098" style="stroke: #A80036; stroke-width: 1.0;"/><text fill="#000000" font-family="sans-serif" font-size="13" lengthAdjust="spacingAndGlyphs" textLength="73" x="230" y="311.4951">[isResumed]</text><!--link State3 to *end--><path d="M206,523.0853 C206,545.1589 206,577.1177 206,595.5025 " fill="none" id="State3-*end" style="stroke: #A80036; stroke-width: 1.0;"/><polygon fill="#A80036" points="206,600.7464,210,591.7464,206,595.7464,202,591.7464,206,600.7464" style="stroke: #A80036; stroke-width: 1.0;"/><text fill="#000000" font-family="sans-serif" font-size="13" lengthAdjust="spacingAndGlyphs" textLength="32" x="207" y="567.4951">[else]</text><!--
@startuml
state State0 as " "
state State1 as " "
state State2 as " "
state State3 as " "
[*] - -> State0
State0 - -> State1 : Start
State1 - -> State1 : ProposeCombination
State1 - -> State2 : [isWinner || isLooser]
State2 - -> State3 : Resume
State3 - -> State0 : [isResumed]
State3 - -> [*] : [else]
@enduml

PlantUML version 1.2019.05(Sat Apr 20 18:45:36 CEST 2019)
(GPL source distribution)
Java Runtime: OpenJDK Runtime Environment
JVM: OpenJDK 64-Bit Server VM
Java Version: 1.8.0_222-b10
Operating System: Windows 10
OS Version: 10.0
Default Encoding: windows-1252
Language: es
Country: ES
--></g></svg>