<?xml version="1.0" encoding="UTF-8" standalone="no"?><svg xmlns="http://www.w3.org/2000/svg" xmlns:xlink="http://www.w3.org/1999/xlink" contentScriptType="application/ecmascript" contentStyleType="text/css" height="158px" preserveAspectRatio="none" style="width:518px;height:158px;" version="1.1" viewBox="0 0 518 158" width="518px" zoomAndPan="magnify"><defs><filter height="300%" id="ftx2udq4kunfq" width="300%" x="-1" y="-1"><feGaussianBlur result="blurOut" stdDeviation="2.0"/><feColorMatrix in="blurOut" result="blurOut2" type="matrix" values="0 0 0 0 0 0 0 0 0 0 0 0 0 0 0 0 0 0 .4 0"/><feOffset dx="4.0" dy="4.0" in="blurOut2" result="blurOut3"/><feBlend in="SourceGraphic" in2="blurOut3" mode="normal"/></filter></defs><g><!--entity mastermind--><polygon fill="#FFFFFF" filter="url(#ftx2udq4kunfq)" points="6,106,85,106,92,129.6094,109,129.6094,109,146.6094,6,146.6094,6,106" style="stroke: #000000; stroke-width: 1.5;"/><line style="stroke: #000000; stroke-width: 1.5;" x1="6" x2="92" y1="129.6094" y2="129.6094"/><text fill="#000000" font-family="sans-serif" font-size="14" lengthAdjust="spacingAndGlyphs" textLength="73" x="10" y="123.5332">mastermind</text><!--entity mastermind.utils--><polygon fill="#FFFFFF" filter="url(#ftx2udq4kunfq)" points="144.5,106,252.5,106,259.5,129.6094,276.5,129.6094,276.5,146.6094,144.5,146.6094,144.5,106" style="stroke: #000000; stroke-width: 1.5;"/><line style="stroke: #000000; stroke-width: 1.5;" x1="144.5" x2="259.5" y1="129.6094" y2="129.6094"/><text fill="#000000" font-family="sans-serif" font-size="14" lengthAdjust="spacingAndGlyphs" textLength="102" x="148.5" y="123.5332">mastermind.utils</text><!--entity java.io--><polygon fill="#FFFFFF" filter="url(#ftx2udq4kunfq)" points="312,106,359,106,366,129.6094,383,129.6094,383,146.6094,312,146.6094,312,106" style="stroke: #000000; stroke-width: 1.5;"/><line style="stroke: #000000; stroke-width: 1.5;" x1="312" x2="366" y1="129.6094" y2="129.6094"/><text fill="#000000" font-family="sans-serif" font-size="14" lengthAdjust="spacingAndGlyphs" textLength="41" x="316" y="123.5332">java.io</text><!--entity java.util--><polygon fill="#FFFFFF" filter="url(#ftx2udq4kunfq)" points="418.5,106,472.5,106,479.5,129.6094,496.5,129.6094,496.5,146.6094,418.5,146.6094,418.5,106" style="stroke: #000000; stroke-width: 1.5;"/><line style="stroke: #000000; stroke-width: 1.5;" x1="418.5" x2="479.5" y1="129.6094" y2="129.6094"/><text fill="#000000" font-family="sans-serif" font-size="14" lengthAdjust="spacingAndGlyphs" textLength="48" x="422.5" y="123.5332">java.util</text><!--entity jar--><rect fill="#FEFECE" filter="url(#ftx2udq4kunfq)" height="37.6094" style="stroke: #A80036; stroke-width: 1.5;" width="113" x="222" y="8"/><rect fill="#FEFECE" height="5" style="stroke: #A80036; stroke-width: 1.5;" width="10" x="217" y="13"/><rect fill="#FEFECE" height="5" style="stroke: #A80036; stroke-width: 1.5;" width="10" x="217" y="35.6094"/><text fill="#000000" font-family="sans-serif" font-size="14" lengthAdjust="spacingAndGlyphs" textLength="93" x="232" y="32.5332">mastermind.jar</text><!--link jar to mastermind--><path d="M225.148,51.5375 C191.504,66.3807 148.107,85.5265 113.896,100.6196 " fill="none" id="jar-mastermind" style="stroke: #A80036; stroke-width: 1.0;"/><polygon fill="#A80036" points="101.7422,105.9814,111.591,106.0085,106.3168,103.9633,108.362,98.6891,101.7422,105.9814" style="stroke: #A80036; stroke-width: 1.0;"/><line style="stroke: #A80036; stroke-width: 1.0;" x1="106.3168" x2="113.6365" y1="103.9633" y2="100.734"/><polygon fill="#A80036" points="237.45,46.111,230.346,44.8731,226.4709,50.9545,233.575,52.1925,237.45,46.111" style="stroke: #A80036; stroke-width: 1.0;"/><!--link jar to mastermind.utils--><path d="M258.195,57.1138 C249.866,69.0563 240.22,82.8865 231.792,94.9716 " fill="none" id="jar-mastermind.utils" style="stroke: #A80036; stroke-width: 1.0;"/><polygon fill="#A80036" points="224.166,105.905,232.5953,100.8113,227.0263,101.8039,226.0336,96.2348,224.166,105.905" style="stroke: #A80036; stroke-width: 1.0;"/><line style="stroke: #A80036; stroke-width: 1.0;" x1="227.0263" x2="231.603" y1="101.8039" y2="95.2422"/><polygon fill="#A80036" points="265.71,46.339,258.9968,48.9721,258.8454,56.1816,265.5586,53.5485,265.71,46.339" style="stroke: #A80036; stroke-width: 1.0;"/><!--link jar to java.io--><path d="M299.104,57.1138 C307.555,69.0563 317.343,82.8865 325.895,94.9716 " fill="none" id="jar-java.io" style="stroke: #A80036; stroke-width: 1.0;"/><polygon fill="#A80036" points="333.633,105.905,331.699,96.2479,330.7446,101.8237,325.1689,100.8693,333.633,105.905" style="stroke: #A80036; stroke-width: 1.0;"/><line style="stroke: #A80036; stroke-width: 1.0;" x1="330.7446" x2="326.123" y1="101.8237" y2="95.2935"/><polygon fill="#A80036" points="291.478,46.339,291.679,53.5473,298.4102,56.1342,298.2091,48.9259,291.478,46.339" style="stroke: #A80036; stroke-width: 1.0;"/><!--link jar to java.util--><path d="M323.318,52.4118 C349.798,66.8355 383.298,85.0825 410.2,99.7361 " fill="none" id="jar-java.util" style="stroke: #A80036; stroke-width: 1.0;"/><polygon fill="#A80036" points="421.666,105.9814,415.6758,98.1636,417.2751,103.5897,411.8491,105.189,421.666,105.9814" style="stroke: #A80036; stroke-width: 1.0;"/><line style="stroke: #A80036; stroke-width: 1.0;" x1="417.2751" x2="410.2495" y1="103.5897" y2="99.763"/><polygon fill="#A80036" points="311.749,46.111,315.1046,52.4938,322.287,51.8512,318.9314,45.4684,311.749,46.111" style="stroke: #A80036; stroke-width: 1.0;"/><!--
@startuml

package "  "  as mastermind {
}
package "  "  as mastermind.utils {
}
package "  "  as java.io {
}
package "  "  as java.util {
}

[mastermind.jar] as jar

jar *- -> mastermind
jar *- -> mastermind.utils
jar *- -> java.io
jar *- -> java.util
@enduml

PlantUML version 1.2019.05(Sat Apr 20 18:45:36 CEST 2019)
(GPL source distribution)
Java Runtime: OpenJDK Runtime Environment
JVM: OpenJDK 64-Bit Server VM
Java Version: 1.8.0_222-b10
Operating System: Windows 10
OS Version: 10.0
Default Encoding: windows-1252
Language: es
Country: ES
--></g></svg>