<?xml version="1.0" encoding="UTF-8" standalone="no"?><svg xmlns="http://www.w3.org/2000/svg" xmlns:xlink="http://www.w3.org/1999/xlink" contentScriptType="application/ecmascript" contentStyleType="text/css" height="295px" preserveAspectRatio="none" style="width:654px;height:295px;" version="1.1" viewBox="0 0 654 295" width="654px" zoomAndPan="magnify"><defs><filter height="300%" id="f1iudyq45ic5p0" width="300%" x="-1" y="-1"><feGaussianBlur result="blurOut" stdDeviation="2.0"/><feColorMatrix in="blurOut" result="blurOut2" type="matrix" values="0 0 0 0 0 0 0 0 0 0 0 0 0 0 0 0 0 0 .4 0"/><feOffset dx="4.0" dy="4.0" in="blurOut2" result="blurOut3"/><feBlend in="SourceGraphic" in2="blurOut3" mode="normal"/></filter></defs><g><ellipse cx="329.125" cy="18" fill="#000000" filter="url(#f1iudyq45ic5p0)" rx="10" ry="10" style="stroke: none; stroke-width: 1.0;"/><rect fill="#FEFECE" filter="url(#f1iudyq45ic5p0)" height="50" rx="12.5" ry="12.5" style="stroke: #A80036; stroke-width: 1.5;" width="50" x="304.125" y="106"/><line style="stroke: #A80036; stroke-width: 1.5;" x1="304.125" x2="354.125" y1="133.6094" y2="133.6094"/><text fill="#000000" font-family="sans-serif" font-size="14" lengthAdjust="spacingAndGlyphs" textLength="9" x="324.625" y="125.5332">A</text><rect fill="#FEFECE" filter="url(#f1iudyq45ic5p0)" height="50" rx="12.5" ry="12.5" style="stroke: #A80036; stroke-width: 1.5;" width="50" x="148.125" y="234"/><line style="stroke: #A80036; stroke-width: 1.5;" x1="148.125" x2="198.125" y1="261.6094" y2="261.6094"/><text fill="#000000" font-family="sans-serif" font-size="14" lengthAdjust="spacingAndGlyphs" textLength="9" x="168.625" y="253.5332">B</text><ellipse cx="521.125" cy="259" fill="none" filter="url(#f1iudyq45ic5p0)" rx="10" ry="10" style="stroke: #000000; stroke-width: 1.0;"/><ellipse cx="521.625" cy="259.5" fill="#000000" rx="6" ry="6" style="stroke: none; stroke-width: 1.0;"/><!--link *start to A--><path d="M329.125,28.084 C329.125,43.745 329.125,76.474 329.125,100.637 " fill="none" id="*start-A" style="stroke: #A80036; stroke-width: 1.0;"/><polygon fill="#A80036" points="329.125,105.653,333.125,96.653,329.125,100.653,325.125,96.653,329.125,105.653" style="stroke: #A80036; stroke-width: 1.0;"/><text fill="#000000" font-family="sans-serif" font-size="13" lengthAdjust="spacingAndGlyphs" textLength="232" x="330.125" y="72.4951">makerPlayer make a secretCombination</text><!--link A to B--><path d="M303.978,132.331 C236.023,133.808 51.3214,141.884 14.1246,186 C-23.7209,230.8854 86.7946,249.0707 142.779,255.2607 " fill="none" id="A-B" style="stroke: #A80036; stroke-width: 1.0;"/><polygon fill="#A80036" points="148.02,255.8228,139.4976,250.8864,143.0485,255.2899,138.645,258.8409,148.02,255.8228" style="stroke: #A80036; stroke-width: 1.0;"/><text fill="#000000" font-family="sans-serif" font-size="13" lengthAdjust="spacingAndGlyphs" textLength="270" x="15.1246" y="200.4951">breakerPlayer propose a proposedCombination</text><!--link B to A--><path d="M198.172,251.5334 C223.859,243.8323 263.691,228.7937 290.125,204 C302.701,192.2042 312.115,175.424 318.54,161.03 " fill="none" id="B-A" style="stroke: #A80036; stroke-width: 1.0;"/><polygon fill="#A80036" points="320.604,156.25,313.3628,162.9257,318.6211,160.84,320.7069,166.0983,320.604,156.25" style="stroke: #A80036; stroke-width: 1.0;"/><text fill="#000000" font-family="sans-serif" font-size="13" lengthAdjust="spacingAndGlyphs" textLength="150" x="306.125" y="200.4951">makerPlayer show results</text><!--link A to *end--><path d="M354.187,137.674 C383.087,145.131 430.991,160.38 465.125,186 C486.933,202.3682 504.739,229.2905 514.06,245.1644 " fill="none" id="A-*end" style="stroke: #A80036; stroke-width: 1.0;"/><polygon fill="#A80036" points="516.676,249.7121,515.6565,239.9161,514.1833,245.3778,508.7216,243.9045,516.676,249.7121" style="stroke: #A80036; stroke-width: 1.0;"/><text fill="#000000" font-family="sans-serif" font-size="13" lengthAdjust="spacingAndGlyphs" textLength="158" x="484.125" y="200.4951">[isWinner || 10 propositons]</text><!--
@startuml

[*] - -> A : makerPlayer make a secretCombination
A - -> B : breakerPlayer propose a proposedCombination
B - -> A : makerPlayer show results
A - -> [*] : [isWinner || 10 propositons]

@enduml

PlantUML version 1.2019.05(Sat Apr 20 18:45:36 CEST 2019)
(GPL source distribution)
Java Runtime: OpenJDK Runtime Environment
JVM: OpenJDK 64-Bit Server VM
Java Version: 1.8.0_222-b10
Operating System: Windows 10
OS Version: 10.0
Default Encoding: windows-1252
Language: es
Country: ES
--></g></svg>