<?xml version="1.0" encoding="UTF-8" standalone="no"?><svg xmlns="http://www.w3.org/2000/svg" xmlns:xlink="http://www.w3.org/1999/xlink" contentScriptType="application/ecmascript" contentStyleType="text/css" height="1039px" preserveAspectRatio="none" style="width:872px;height:1039px;" version="1.1" viewBox="0 0 872 1039" width="872px" zoomAndPan="magnify"><defs><filter height="300%" id="f1xsbr4tu17a5g" width="300%" x="-1" y="-1"><feGaussianBlur result="blurOut" stdDeviation="2.0"/><feColorMatrix in="blurOut" result="blurOut2" type="matrix" values="0 0 0 0 0 0 0 0 0 0 0 0 0 0 0 0 0 0 .4 0"/><feOffset dx="4.0" dy="4.0" in="blurOut2" result="blurOut3"/><feBlend in="SourceGraphic" in2="blurOut3" mode="normal"/></filter></defs><g><!--class Mastermind--><rect fill="#FEFECE" filter="url(#f1xsbr4tu17a5g)" height="48" id="Mastermind" style="stroke: #A80036; stroke-width: 1.5;" width="97" x="393" y="8"/><ellipse cx="408" cy="24" fill="#ADD1B2" rx="11" ry="11" style="stroke: #A80036; stroke-width: 1.0;"/><path d="M410.7656,19.875 Q410.9219,19.6563 411.1094,19.5469 Q411.2969,19.4375 411.5156,19.4375 Q411.8906,19.4375 412.125,19.6953 Q412.3594,19.9531 412.3594,20.5625 L412.3594,22.0156 Q412.3594,22.625 412.125,22.8906 Q411.8906,23.1563 411.5156,23.1563 Q411.1719,23.1563 410.9688,22.9531 Q410.7656,22.7656 410.6563,22.25 Q410.6094,21.8906 410.4219,21.7031 Q410.0938,21.3281 409.4844,21.1094 Q408.875,20.8906 408.25,20.8906 Q407.4844,20.8906 406.8516,21.2188 Q406.2188,21.5469 405.7266,22.2969 Q405.2344,23.0469 405.2344,24.0781 L405.2344,25.1719 Q405.2344,26.4063 406.125,27.2266 Q407.0156,28.0469 408.6094,28.0469 Q409.5469,28.0469 410.2031,27.7969 Q410.5938,27.6406 411.0156,27.2031 Q411.2813,26.9375 411.4297,26.8594 Q411.5781,26.7813 411.7813,26.7813 Q412.1094,26.7813 412.3672,27.0391 Q412.625,27.2969 412.625,27.6406 Q412.625,27.9844 412.2813,28.3906 Q411.7813,28.9688 410.9844,29.2969 Q409.9063,29.75 408.6094,29.75 Q407.0938,29.75 405.8906,29.125 Q404.9063,28.625 404.2188,27.5547 Q403.5313,26.4844 403.5313,25.2031 L403.5313,24.0469 Q403.5313,22.7188 404.1484,21.5703 Q404.7656,20.4219 405.8594,19.8047 Q406.9531,19.1875 408.1875,19.1875 Q408.9219,19.1875 409.5703,19.3516 Q410.2188,19.5156 410.7656,19.875 Z "/><text fill="#000000" font-family="sans-serif" font-size="12" lengthAdjust="spacingAndGlyphs" textLength="65" x="422" y="28.9102">Mastermind</text><line style="stroke: #A80036; stroke-width: 1.5;" x1="394" x2="489" y1="40" y2="40"/><line style="stroke: #A80036; stroke-width: 1.5;" x1="394" x2="489" y1="48" y2="48"/><!--class Board--><rect fill="#FEFECE" filter="url(#f1xsbr4tu17a5g)" height="48" id="Board" style="stroke: #A80036; stroke-width: 1.5;" width="65" x="480" y="224"/><ellipse cx="495" cy="240" fill="#ADD1B2" rx="11" ry="11" style="stroke: #A80036; stroke-width: 1.0;"/><path d="M497.7656,235.875 Q497.9219,235.6563 498.1094,235.5469 Q498.2969,235.4375 498.5156,235.4375 Q498.8906,235.4375 499.125,235.6953 Q499.3594,235.9531 499.3594,236.5625 L499.3594,238.0156 Q499.3594,238.625 499.125,238.8906 Q498.8906,239.1563 498.5156,239.1563 Q498.1719,239.1563 497.9688,238.9531 Q497.7656,238.7656 497.6563,238.25 Q497.6094,237.8906 497.4219,237.7031 Q497.0938,237.3281 496.4844,237.1094 Q495.875,236.8906 495.25,236.8906 Q494.4844,236.8906 493.8516,237.2188 Q493.2188,237.5469 492.7266,238.2969 Q492.2344,239.0469 492.2344,240.0781 L492.2344,241.1719 Q492.2344,242.4063 493.125,243.2266 Q494.0156,244.0469 495.6094,244.0469 Q496.5469,244.0469 497.2031,243.7969 Q497.5938,243.6406 498.0156,243.2031 Q498.2813,242.9375 498.4297,242.8594 Q498.5781,242.7813 498.7813,242.7813 Q499.1094,242.7813 499.3672,243.0391 Q499.625,243.2969 499.625,243.6406 Q499.625,243.9844 499.2813,244.3906 Q498.7813,244.9688 497.9844,245.2969 Q496.9063,245.75 495.6094,245.75 Q494.0938,245.75 492.8906,245.125 Q491.9063,244.625 491.2188,243.5547 Q490.5313,242.4844 490.5313,241.2031 L490.5313,240.0469 Q490.5313,238.7188 491.1484,237.5703 Q491.7656,236.4219 492.8594,235.8047 Q493.9531,235.1875 495.1875,235.1875 Q495.9219,235.1875 496.5703,235.3516 Q497.2188,235.5156 497.7656,235.875 Z "/><text fill="#000000" font-family="sans-serif" font-size="12" lengthAdjust="spacingAndGlyphs" textLength="33" x="509" y="244.9102">Board</text><line style="stroke: #A80036; stroke-width: 1.5;" x1="481" x2="544" y1="256" y2="256"/><line style="stroke: #A80036; stroke-width: 1.5;" x1="481" x2="544" y1="264" y2="264"/><!--class Turn--><rect fill="#FEFECE" filter="url(#f1xsbr4tu17a5g)" height="48" id="Turn" style="stroke: #A80036; stroke-width: 1.5;" width="57" x="331" y="116"/><ellipse cx="346" cy="132" fill="#ADD1B2" rx="11" ry="11" style="stroke: #A80036; stroke-width: 1.0;"/><path d="M348.7656,127.875 Q348.9219,127.6563 349.1094,127.5469 Q349.2969,127.4375 349.5156,127.4375 Q349.8906,127.4375 350.125,127.6953 Q350.3594,127.9531 350.3594,128.5625 L350.3594,130.0156 Q350.3594,130.625 350.125,130.8906 Q349.8906,131.1563 349.5156,131.1563 Q349.1719,131.1563 348.9688,130.9531 Q348.7656,130.7656 348.6563,130.25 Q348.6094,129.8906 348.4219,129.7031 Q348.0938,129.3281 347.4844,129.1094 Q346.875,128.8906 346.25,128.8906 Q345.4844,128.8906 344.8516,129.2188 Q344.2188,129.5469 343.7266,130.2969 Q343.2344,131.0469 343.2344,132.0781 L343.2344,133.1719 Q343.2344,134.4063 344.125,135.2266 Q345.0156,136.0469 346.6094,136.0469 Q347.5469,136.0469 348.2031,135.7969 Q348.5938,135.6406 349.0156,135.2031 Q349.2813,134.9375 349.4297,134.8594 Q349.5781,134.7813 349.7813,134.7813 Q350.1094,134.7813 350.3672,135.0391 Q350.625,135.2969 350.625,135.6406 Q350.625,135.9844 350.2813,136.3906 Q349.7813,136.9688 348.9844,137.2969 Q347.9063,137.75 346.6094,137.75 Q345.0938,137.75 343.8906,137.125 Q342.9063,136.625 342.2188,135.5547 Q341.5313,134.4844 341.5313,133.2031 L341.5313,132.0469 Q341.5313,130.7188 342.1484,129.5703 Q342.7656,128.4219 343.8594,127.8047 Q344.9531,127.1875 346.1875,127.1875 Q346.9219,127.1875 347.5703,127.3516 Q348.2188,127.5156 348.7656,127.875 Z "/><text fill="#000000" font-family="sans-serif" font-size="12" lengthAdjust="spacingAndGlyphs" textLength="25" x="360" y="136.9102">Turn</text><line style="stroke: #A80036; stroke-width: 1.5;" x1="332" x2="387" y1="148" y2="148"/><line style="stroke: #A80036; stroke-width: 1.5;" x1="332" x2="387" y1="156" y2="156"/><!--class Player--><rect fill="#FEFECE" filter="url(#f1xsbr4tu17a5g)" height="48" id="Player" style="stroke: #A80036; stroke-width: 1.5;" width="66" x="348.5" y="224"/><ellipse cx="363.5" cy="240" fill="#ADD1B2" rx="11" ry="11" style="stroke: #A80036; stroke-width: 1.0;"/><path d="M366.2656,235.875 Q366.4219,235.6563 366.6094,235.5469 Q366.7969,235.4375 367.0156,235.4375 Q367.3906,235.4375 367.625,235.6953 Q367.8594,235.9531 367.8594,236.5625 L367.8594,238.0156 Q367.8594,238.625 367.625,238.8906 Q367.3906,239.1563 367.0156,239.1563 Q366.6719,239.1563 366.4688,238.9531 Q366.2656,238.7656 366.1563,238.25 Q366.1094,237.8906 365.9219,237.7031 Q365.5938,237.3281 364.9844,237.1094 Q364.375,236.8906 363.75,236.8906 Q362.9844,236.8906 362.3516,237.2188 Q361.7188,237.5469 361.2266,238.2969 Q360.7344,239.0469 360.7344,240.0781 L360.7344,241.1719 Q360.7344,242.4063 361.625,243.2266 Q362.5156,244.0469 364.1094,244.0469 Q365.0469,244.0469 365.7031,243.7969 Q366.0938,243.6406 366.5156,243.2031 Q366.7813,242.9375 366.9297,242.8594 Q367.0781,242.7813 367.2813,242.7813 Q367.6094,242.7813 367.8672,243.0391 Q368.125,243.2969 368.125,243.6406 Q368.125,243.9844 367.7813,244.3906 Q367.2813,244.9688 366.4844,245.2969 Q365.4063,245.75 364.1094,245.75 Q362.5938,245.75 361.3906,245.125 Q360.4063,244.625 359.7188,243.5547 Q359.0313,242.4844 359.0313,241.2031 L359.0313,240.0469 Q359.0313,238.7188 359.6484,237.5703 Q360.2656,236.4219 361.3594,235.8047 Q362.4531,235.1875 363.6875,235.1875 Q364.4219,235.1875 365.0703,235.3516 Q365.7188,235.5156 366.2656,235.875 Z "/><text fill="#000000" font-family="sans-serif" font-size="12" lengthAdjust="spacingAndGlyphs" textLength="34" x="377.5" y="244.9102">Player</text><line style="stroke: #A80036; stroke-width: 1.5;" x1="349.5" x2="413.5" y1="256" y2="256"/><line style="stroke: #A80036; stroke-width: 1.5;" x1="349.5" x2="413.5" y1="264" y2="264"/><!--class MakerPlayer--><rect fill="#FEFECE" filter="url(#f1xsbr4tu17a5g)" height="48" id="MakerPlayer" style="stroke: #A80036; stroke-width: 1.5;" width="99" x="6" y="332"/><ellipse cx="21" cy="348" fill="#ADD1B2" rx="11" ry="11" style="stroke: #A80036; stroke-width: 1.0;"/><path d="M23.7656,343.875 Q23.9219,343.6563 24.1094,343.5469 Q24.2969,343.4375 24.5156,343.4375 Q24.8906,343.4375 25.125,343.6953 Q25.3594,343.9531 25.3594,344.5625 L25.3594,346.0156 Q25.3594,346.625 25.125,346.8906 Q24.8906,347.1563 24.5156,347.1563 Q24.1719,347.1563 23.9688,346.9531 Q23.7656,346.7656 23.6563,346.25 Q23.6094,345.8906 23.4219,345.7031 Q23.0938,345.3281 22.4844,345.1094 Q21.875,344.8906 21.25,344.8906 Q20.4844,344.8906 19.8516,345.2188 Q19.2188,345.5469 18.7266,346.2969 Q18.2344,347.0469 18.2344,348.0781 L18.2344,349.1719 Q18.2344,350.4063 19.125,351.2266 Q20.0156,352.0469 21.6094,352.0469 Q22.5469,352.0469 23.2031,351.7969 Q23.5938,351.6406 24.0156,351.2031 Q24.2813,350.9375 24.4297,350.8594 Q24.5781,350.7813 24.7813,350.7813 Q25.1094,350.7813 25.3672,351.0391 Q25.625,351.2969 25.625,351.6406 Q25.625,351.9844 25.2813,352.3906 Q24.7813,352.9688 23.9844,353.2969 Q22.9063,353.75 21.6094,353.75 Q20.0938,353.75 18.8906,353.125 Q17.9063,352.625 17.2188,351.5547 Q16.5313,350.4844 16.5313,349.2031 L16.5313,348.0469 Q16.5313,346.7188 17.1484,345.5703 Q17.7656,344.4219 18.8594,343.8047 Q19.9531,343.1875 21.1875,343.1875 Q21.9219,343.1875 22.5703,343.3516 Q23.2188,343.5156 23.7656,343.875 Z "/><text fill="#000000" font-family="sans-serif" font-size="12" lengthAdjust="spacingAndGlyphs" textLength="67" x="35" y="352.9102">MakerPlayer</text><line style="stroke: #A80036; stroke-width: 1.5;" x1="7" x2="104" y1="364" y2="364"/><line style="stroke: #A80036; stroke-width: 1.5;" x1="7" x2="104" y1="372" y2="372"/><!--class BreakerPlayer--><rect fill="#FEFECE" filter="url(#f1xsbr4tu17a5g)" height="48" id="BreakerPlayer" style="stroke: #A80036; stroke-width: 1.5;" width="109" x="350" y="332"/><ellipse cx="365" cy="348" fill="#ADD1B2" rx="11" ry="11" style="stroke: #A80036; stroke-width: 1.0;"/><path d="M367.7656,343.875 Q367.9219,343.6563 368.1094,343.5469 Q368.2969,343.4375 368.5156,343.4375 Q368.8906,343.4375 369.125,343.6953 Q369.3594,343.9531 369.3594,344.5625 L369.3594,346.0156 Q369.3594,346.625 369.125,346.8906 Q368.8906,347.1563 368.5156,347.1563 Q368.1719,347.1563 367.9688,346.9531 Q367.7656,346.7656 367.6563,346.25 Q367.6094,345.8906 367.4219,345.7031 Q367.0938,345.3281 366.4844,345.1094 Q365.875,344.8906 365.25,344.8906 Q364.4844,344.8906 363.8516,345.2188 Q363.2188,345.5469 362.7266,346.2969 Q362.2344,347.0469 362.2344,348.0781 L362.2344,349.1719 Q362.2344,350.4063 363.125,351.2266 Q364.0156,352.0469 365.6094,352.0469 Q366.5469,352.0469 367.2031,351.7969 Q367.5938,351.6406 368.0156,351.2031 Q368.2813,350.9375 368.4297,350.8594 Q368.5781,350.7813 368.7813,350.7813 Q369.1094,350.7813 369.3672,351.0391 Q369.625,351.2969 369.625,351.6406 Q369.625,351.9844 369.2813,352.3906 Q368.7813,352.9688 367.9844,353.2969 Q366.9063,353.75 365.6094,353.75 Q364.0938,353.75 362.8906,353.125 Q361.9063,352.625 361.2188,351.5547 Q360.5313,350.4844 360.5313,349.2031 L360.5313,348.0469 Q360.5313,346.7188 361.1484,345.5703 Q361.7656,344.4219 362.8594,343.8047 Q363.9531,343.1875 365.1875,343.1875 Q365.9219,343.1875 366.5703,343.3516 Q367.2188,343.5156 367.7656,343.875 Z "/><text fill="#000000" font-family="sans-serif" font-size="12" lengthAdjust="spacingAndGlyphs" textLength="77" x="379" y="352.9102">BreakerPlayer</text><line style="stroke: #A80036; stroke-width: 1.5;" x1="351" x2="458" y1="364" y2="364"/><line style="stroke: #A80036; stroke-width: 1.5;" x1="351" x2="458" y1="372" y2="372"/><!--class Goal--><rect fill="#FEFECE" filter="url(#f1xsbr4tu17a5g)" height="48" id="Goal" style="stroke: #A80036; stroke-width: 1.5;" width="58" x="324.5" y="440"/><ellipse cx="339.5" cy="456" fill="#ADD1B2" rx="11" ry="11" style="stroke: #A80036; stroke-width: 1.0;"/><path d="M342.2656,451.875 Q342.4219,451.6563 342.6094,451.5469 Q342.7969,451.4375 343.0156,451.4375 Q343.3906,451.4375 343.625,451.6953 Q343.8594,451.9531 343.8594,452.5625 L343.8594,454.0156 Q343.8594,454.625 343.625,454.8906 Q343.3906,455.1563 343.0156,455.1563 Q342.6719,455.1563 342.4688,454.9531 Q342.2656,454.7656 342.1563,454.25 Q342.1094,453.8906 341.9219,453.7031 Q341.5938,453.3281 340.9844,453.1094 Q340.375,452.8906 339.75,452.8906 Q338.9844,452.8906 338.3516,453.2188 Q337.7188,453.5469 337.2266,454.2969 Q336.7344,455.0469 336.7344,456.0781 L336.7344,457.1719 Q336.7344,458.4063 337.625,459.2266 Q338.5156,460.0469 340.1094,460.0469 Q341.0469,460.0469 341.7031,459.7969 Q342.0938,459.6406 342.5156,459.2031 Q342.7813,458.9375 342.9297,458.8594 Q343.0781,458.7813 343.2813,458.7813 Q343.6094,458.7813 343.8672,459.0391 Q344.125,459.2969 344.125,459.6406 Q344.125,459.9844 343.7813,460.3906 Q343.2813,460.9688 342.4844,461.2969 Q341.4063,461.75 340.1094,461.75 Q338.5938,461.75 337.3906,461.125 Q336.4063,460.625 335.7188,459.5547 Q335.0313,458.4844 335.0313,457.2031 L335.0313,456.0469 Q335.0313,454.7188 335.6484,453.5703 Q336.2656,452.4219 337.3594,451.8047 Q338.4531,451.1875 339.6875,451.1875 Q340.4219,451.1875 341.0703,451.3516 Q341.7188,451.5156 342.2656,451.875 Z "/><text fill="#000000" font-family="sans-serif" font-size="12" lengthAdjust="spacingAndGlyphs" textLength="26" x="353.5" y="460.9102">Goal</text><line style="stroke: #A80036; stroke-width: 1.5;" x1="325.5" x2="381.5" y1="472" y2="472"/><line style="stroke: #A80036; stroke-width: 1.5;" x1="325.5" x2="381.5" y1="480" y2="480"/><!--class WinnerResult--><rect fill="#FEFECE" filter="url(#f1xsbr4tu17a5g)" height="48" id="WinnerResult" style="stroke: #A80036; stroke-width: 1.5;" width="107" x="421" y="548"/><ellipse cx="436" cy="564" fill="#ADD1B2" rx="11" ry="11" style="stroke: #A80036; stroke-width: 1.0;"/><path d="M438.7656,559.875 Q438.9219,559.6563 439.1094,559.5469 Q439.2969,559.4375 439.5156,559.4375 Q439.8906,559.4375 440.125,559.6953 Q440.3594,559.9531 440.3594,560.5625 L440.3594,562.0156 Q440.3594,562.625 440.125,562.8906 Q439.8906,563.1563 439.5156,563.1563 Q439.1719,563.1563 438.9688,562.9531 Q438.7656,562.7656 438.6563,562.25 Q438.6094,561.8906 438.4219,561.7031 Q438.0938,561.3281 437.4844,561.1094 Q436.875,560.8906 436.25,560.8906 Q435.4844,560.8906 434.8516,561.2188 Q434.2188,561.5469 433.7266,562.2969 Q433.2344,563.0469 433.2344,564.0781 L433.2344,565.1719 Q433.2344,566.4063 434.125,567.2266 Q435.0156,568.0469 436.6094,568.0469 Q437.5469,568.0469 438.2031,567.7969 Q438.5938,567.6406 439.0156,567.2031 Q439.2813,566.9375 439.4297,566.8594 Q439.5781,566.7813 439.7813,566.7813 Q440.1094,566.7813 440.3672,567.0391 Q440.625,567.2969 440.625,567.6406 Q440.625,567.9844 440.2813,568.3906 Q439.7813,568.9688 438.9844,569.2969 Q437.9063,569.75 436.6094,569.75 Q435.0938,569.75 433.8906,569.125 Q432.9063,568.625 432.2188,567.5547 Q431.5313,566.4844 431.5313,565.2031 L431.5313,564.0469 Q431.5313,562.7188 432.1484,561.5703 Q432.7656,560.4219 433.8594,559.8047 Q434.9531,559.1875 436.1875,559.1875 Q436.9219,559.1875 437.5703,559.3516 Q438.2188,559.5156 438.7656,559.875 Z "/><text fill="#000000" font-family="sans-serif" font-size="12" lengthAdjust="spacingAndGlyphs" textLength="75" x="450" y="568.9102">WinnerResult</text><line style="stroke: #A80036; stroke-width: 1.5;" x1="422" x2="527" y1="580" y2="580"/><line style="stroke: #A80036; stroke-width: 1.5;" x1="422" x2="527" y1="588" y2="588"/><!--class Result--><rect fill="#FEFECE" filter="url(#f1xsbr4tu17a5g)" height="48" id="Result" style="stroke: #A80036; stroke-width: 1.5;" width="68" x="565.5" y="332"/><ellipse cx="580.5" cy="348" fill="#ADD1B2" rx="11" ry="11" style="stroke: #A80036; stroke-width: 1.0;"/><path d="M583.2656,343.875 Q583.4219,343.6563 583.6094,343.5469 Q583.7969,343.4375 584.0156,343.4375 Q584.3906,343.4375 584.625,343.6953 Q584.8594,343.9531 584.8594,344.5625 L584.8594,346.0156 Q584.8594,346.625 584.625,346.8906 Q584.3906,347.1563 584.0156,347.1563 Q583.6719,347.1563 583.4688,346.9531 Q583.2656,346.7656 583.1563,346.25 Q583.1094,345.8906 582.9219,345.7031 Q582.5938,345.3281 581.9844,345.1094 Q581.375,344.8906 580.75,344.8906 Q579.9844,344.8906 579.3516,345.2188 Q578.7188,345.5469 578.2266,346.2969 Q577.7344,347.0469 577.7344,348.0781 L577.7344,349.1719 Q577.7344,350.4063 578.625,351.2266 Q579.5156,352.0469 581.1094,352.0469 Q582.0469,352.0469 582.7031,351.7969 Q583.0938,351.6406 583.5156,351.2031 Q583.7813,350.9375 583.9297,350.8594 Q584.0781,350.7813 584.2813,350.7813 Q584.6094,350.7813 584.8672,351.0391 Q585.125,351.2969 585.125,351.6406 Q585.125,351.9844 584.7813,352.3906 Q584.2813,352.9688 583.4844,353.2969 Q582.4063,353.75 581.1094,353.75 Q579.5938,353.75 578.3906,353.125 Q577.4063,352.625 576.7188,351.5547 Q576.0313,350.4844 576.0313,349.2031 L576.0313,348.0469 Q576.0313,346.7188 576.6484,345.5703 Q577.2656,344.4219 578.3594,343.8047 Q579.4531,343.1875 580.6875,343.1875 Q581.4219,343.1875 582.0703,343.3516 Q582.7188,343.5156 583.2656,343.875 Z "/><text fill="#000000" font-family="sans-serif" font-size="12" lengthAdjust="spacingAndGlyphs" textLength="36" x="594.5" y="352.9102">Result</text><line style="stroke: #A80036; stroke-width: 1.5;" x1="566.5" x2="632.5" y1="364" y2="364"/><line style="stroke: #A80036; stroke-width: 1.5;" x1="566.5" x2="632.5" y1="372" y2="372"/><!--class SecretCombination--><rect fill="#FEFECE" filter="url(#f1xsbr4tu17a5g)" height="48" id="SecretCombination" style="stroke: #A80036; stroke-width: 1.5;" width="138" x="80.5" y="440"/><ellipse cx="95.5" cy="456" fill="#ADD1B2" rx="11" ry="11" style="stroke: #A80036; stroke-width: 1.0;"/><path d="M98.2656,451.875 Q98.4219,451.6563 98.6094,451.5469 Q98.7969,451.4375 99.0156,451.4375 Q99.3906,451.4375 99.625,451.6953 Q99.8594,451.9531 99.8594,452.5625 L99.8594,454.0156 Q99.8594,454.625 99.625,454.8906 Q99.3906,455.1563 99.0156,455.1563 Q98.6719,455.1563 98.4688,454.9531 Q98.2656,454.7656 98.1563,454.25 Q98.1094,453.8906 97.9219,453.7031 Q97.5938,453.3281 96.9844,453.1094 Q96.375,452.8906 95.75,452.8906 Q94.9844,452.8906 94.3516,453.2188 Q93.7188,453.5469 93.2266,454.2969 Q92.7344,455.0469 92.7344,456.0781 L92.7344,457.1719 Q92.7344,458.4063 93.625,459.2266 Q94.5156,460.0469 96.1094,460.0469 Q97.0469,460.0469 97.7031,459.7969 Q98.0938,459.6406 98.5156,459.2031 Q98.7813,458.9375 98.9297,458.8594 Q99.0781,458.7813 99.2813,458.7813 Q99.6094,458.7813 99.8672,459.0391 Q100.125,459.2969 100.125,459.6406 Q100.125,459.9844 99.7813,460.3906 Q99.2813,460.9688 98.4844,461.2969 Q97.4063,461.75 96.1094,461.75 Q94.5938,461.75 93.3906,461.125 Q92.4063,460.625 91.7188,459.5547 Q91.0313,458.4844 91.0313,457.2031 L91.0313,456.0469 Q91.0313,454.7188 91.6484,453.5703 Q92.2656,452.4219 93.3594,451.8047 Q94.4531,451.1875 95.6875,451.1875 Q96.4219,451.1875 97.0703,451.3516 Q97.7188,451.5156 98.2656,451.875 Z "/><text fill="#000000" font-family="sans-serif" font-size="12" lengthAdjust="spacingAndGlyphs" textLength="106" x="109.5" y="460.9102">SecretCombination</text><line style="stroke: #A80036; stroke-width: 1.5;" x1="81.5" x2="217.5" y1="472" y2="472"/><line style="stroke: #A80036; stroke-width: 1.5;" x1="81.5" x2="217.5" y1="480" y2="480"/><!--class ProposedCombination--><rect fill="#FEFECE" filter="url(#f1xsbr4tu17a5g)" height="48" id="ProposedCombination" style="stroke: #A80036; stroke-width: 1.5;" width="157" x="418" y="440"/><ellipse cx="433" cy="456" fill="#ADD1B2" rx="11" ry="11" style="stroke: #A80036; stroke-width: 1.0;"/><path d="M435.7656,451.875 Q435.9219,451.6563 436.1094,451.5469 Q436.2969,451.4375 436.5156,451.4375 Q436.8906,451.4375 437.125,451.6953 Q437.3594,451.9531 437.3594,452.5625 L437.3594,454.0156 Q437.3594,454.625 437.125,454.8906 Q436.8906,455.1563 436.5156,455.1563 Q436.1719,455.1563 435.9688,454.9531 Q435.7656,454.7656 435.6563,454.25 Q435.6094,453.8906 435.4219,453.7031 Q435.0938,453.3281 434.4844,453.1094 Q433.875,452.8906 433.25,452.8906 Q432.4844,452.8906 431.8516,453.2188 Q431.2188,453.5469 430.7266,454.2969 Q430.2344,455.0469 430.2344,456.0781 L430.2344,457.1719 Q430.2344,458.4063 431.125,459.2266 Q432.0156,460.0469 433.6094,460.0469 Q434.5469,460.0469 435.2031,459.7969 Q435.5938,459.6406 436.0156,459.2031 Q436.2813,458.9375 436.4297,458.8594 Q436.5781,458.7813 436.7813,458.7813 Q437.1094,458.7813 437.3672,459.0391 Q437.625,459.2969 437.625,459.6406 Q437.625,459.9844 437.2813,460.3906 Q436.7813,460.9688 435.9844,461.2969 Q434.9063,461.75 433.6094,461.75 Q432.0938,461.75 430.8906,461.125 Q429.9063,460.625 429.2188,459.5547 Q428.5313,458.4844 428.5313,457.2031 L428.5313,456.0469 Q428.5313,454.7188 429.1484,453.5703 Q429.7656,452.4219 430.8594,451.8047 Q431.9531,451.1875 433.1875,451.1875 Q433.9219,451.1875 434.5703,451.3516 Q435.2188,451.5156 435.7656,451.875 Z "/><text fill="#000000" font-family="sans-serif" font-size="12" lengthAdjust="spacingAndGlyphs" textLength="125" x="447" y="460.9102">ProposedCombination</text><line style="stroke: #A80036; stroke-width: 1.5;" x1="419" x2="574" y1="472" y2="472"/><line style="stroke: #A80036; stroke-width: 1.5;" x1="419" x2="574" y1="480" y2="480"/><!--class Black--><rect fill="#FEFECE" filter="url(#f1xsbr4tu17a5g)" height="48" id="Black" style="stroke: #A80036; stroke-width: 1.5;" width="62" x="443.5" y="656"/><ellipse cx="458.5" cy="672" fill="#ADD1B2" rx="11" ry="11" style="stroke: #A80036; stroke-width: 1.0;"/><path d="M461.2656,667.875 Q461.4219,667.6563 461.6094,667.5469 Q461.7969,667.4375 462.0156,667.4375 Q462.3906,667.4375 462.625,667.6953 Q462.8594,667.9531 462.8594,668.5625 L462.8594,670.0156 Q462.8594,670.625 462.625,670.8906 Q462.3906,671.1563 462.0156,671.1563 Q461.6719,671.1563 461.4688,670.9531 Q461.2656,670.7656 461.1563,670.25 Q461.1094,669.8906 460.9219,669.7031 Q460.5938,669.3281 459.9844,669.1094 Q459.375,668.8906 458.75,668.8906 Q457.9844,668.8906 457.3516,669.2188 Q456.7188,669.5469 456.2266,670.2969 Q455.7344,671.0469 455.7344,672.0781 L455.7344,673.1719 Q455.7344,674.4063 456.625,675.2266 Q457.5156,676.0469 459.1094,676.0469 Q460.0469,676.0469 460.7031,675.7969 Q461.0938,675.6406 461.5156,675.2031 Q461.7813,674.9375 461.9297,674.8594 Q462.0781,674.7813 462.2813,674.7813 Q462.6094,674.7813 462.8672,675.0391 Q463.125,675.2969 463.125,675.6406 Q463.125,675.9844 462.7813,676.3906 Q462.2813,676.9688 461.4844,677.2969 Q460.4063,677.75 459.1094,677.75 Q457.5938,677.75 456.3906,677.125 Q455.4063,676.625 454.7188,675.5547 Q454.0313,674.4844 454.0313,673.2031 L454.0313,672.0469 Q454.0313,670.7188 454.6484,669.5703 Q455.2656,668.4219 456.3594,667.8047 Q457.4531,667.1875 458.6875,667.1875 Q459.4219,667.1875 460.0703,667.3516 Q460.7188,667.5156 461.2656,667.875 Z "/><text fill="#000000" font-family="sans-serif" font-size="12" lengthAdjust="spacingAndGlyphs" textLength="30" x="472.5" y="676.9102">Black</text><line style="stroke: #A80036; stroke-width: 1.5;" x1="444.5" x2="504.5" y1="688" y2="688"/><line style="stroke: #A80036; stroke-width: 1.5;" x1="444.5" x2="504.5" y1="696" y2="696"/><!--class Success--><rect fill="#FEFECE" filter="url(#f1xsbr4tu17a5g)" height="48" id="Success" style="stroke: #A80036; stroke-width: 1.5;" width="80" x="590.5" y="548"/><ellipse cx="605.5" cy="564" fill="#ADD1B2" rx="11" ry="11" style="stroke: #A80036; stroke-width: 1.0;"/><path d="M608.2656,559.875 Q608.4219,559.6563 608.6094,559.5469 Q608.7969,559.4375 609.0156,559.4375 Q609.3906,559.4375 609.625,559.6953 Q609.8594,559.9531 609.8594,560.5625 L609.8594,562.0156 Q609.8594,562.625 609.625,562.8906 Q609.3906,563.1563 609.0156,563.1563 Q608.6719,563.1563 608.4688,562.9531 Q608.2656,562.7656 608.1563,562.25 Q608.1094,561.8906 607.9219,561.7031 Q607.5938,561.3281 606.9844,561.1094 Q606.375,560.8906 605.75,560.8906 Q604.9844,560.8906 604.3516,561.2188 Q603.7188,561.5469 603.2266,562.2969 Q602.7344,563.0469 602.7344,564.0781 L602.7344,565.1719 Q602.7344,566.4063 603.625,567.2266 Q604.5156,568.0469 606.1094,568.0469 Q607.0469,568.0469 607.7031,567.7969 Q608.0938,567.6406 608.5156,567.2031 Q608.7813,566.9375 608.9297,566.8594 Q609.0781,566.7813 609.2813,566.7813 Q609.6094,566.7813 609.8672,567.0391 Q610.125,567.2969 610.125,567.6406 Q610.125,567.9844 609.7813,568.3906 Q609.2813,568.9688 608.4844,569.2969 Q607.4063,569.75 606.1094,569.75 Q604.5938,569.75 603.3906,569.125 Q602.4063,568.625 601.7188,567.5547 Q601.0313,566.4844 601.0313,565.2031 L601.0313,564.0469 Q601.0313,562.7188 601.6484,561.5703 Q602.2656,560.4219 603.3594,559.8047 Q604.4531,559.1875 605.6875,559.1875 Q606.4219,559.1875 607.0703,559.3516 Q607.7188,559.5156 608.2656,559.875 Z "/><text fill="#000000" font-family="sans-serif" font-size="12" lengthAdjust="spacingAndGlyphs" textLength="48" x="619.5" y="568.9102">Success</text><line style="stroke: #A80036; stroke-width: 1.5;" x1="591.5" x2="669.5" y1="580" y2="580"/><line style="stroke: #A80036; stroke-width: 1.5;" x1="591.5" x2="669.5" y1="588" y2="588"/><!--class White--><rect fill="#FEFECE" filter="url(#f1xsbr4tu17a5g)" height="48" id="White" style="stroke: #A80036; stroke-width: 1.5;" width="63" x="541" y="656"/><ellipse cx="556" cy="672" fill="#ADD1B2" rx="11" ry="11" style="stroke: #A80036; stroke-width: 1.0;"/><path d="M558.7656,667.875 Q558.9219,667.6563 559.1094,667.5469 Q559.2969,667.4375 559.5156,667.4375 Q559.8906,667.4375 560.125,667.6953 Q560.3594,667.9531 560.3594,668.5625 L560.3594,670.0156 Q560.3594,670.625 560.125,670.8906 Q559.8906,671.1563 559.5156,671.1563 Q559.1719,671.1563 558.9688,670.9531 Q558.7656,670.7656 558.6563,670.25 Q558.6094,669.8906 558.4219,669.7031 Q558.0938,669.3281 557.4844,669.1094 Q556.875,668.8906 556.25,668.8906 Q555.4844,668.8906 554.8516,669.2188 Q554.2188,669.5469 553.7266,670.2969 Q553.2344,671.0469 553.2344,672.0781 L553.2344,673.1719 Q553.2344,674.4063 554.125,675.2266 Q555.0156,676.0469 556.6094,676.0469 Q557.5469,676.0469 558.2031,675.7969 Q558.5938,675.6406 559.0156,675.2031 Q559.2813,674.9375 559.4297,674.8594 Q559.5781,674.7813 559.7813,674.7813 Q560.1094,674.7813 560.3672,675.0391 Q560.625,675.2969 560.625,675.6406 Q560.625,675.9844 560.2813,676.3906 Q559.7813,676.9688 558.9844,677.2969 Q557.9063,677.75 556.6094,677.75 Q555.0938,677.75 553.8906,677.125 Q552.9063,676.625 552.2188,675.5547 Q551.5313,674.4844 551.5313,673.2031 L551.5313,672.0469 Q551.5313,670.7188 552.1484,669.5703 Q552.7656,668.4219 553.8594,667.8047 Q554.9531,667.1875 556.1875,667.1875 Q556.9219,667.1875 557.5703,667.3516 Q558.2188,667.5156 558.7656,667.875 Z "/><text fill="#000000" font-family="sans-serif" font-size="12" lengthAdjust="spacingAndGlyphs" textLength="31" x="570" y="676.9102">White</text><line style="stroke: #A80036; stroke-width: 1.5;" x1="542" x2="603" y1="688" y2="688"/><line style="stroke: #A80036; stroke-width: 1.5;" x1="542" x2="603" y1="696" y2="696"/><!--class Position--><rect fill="#FEFECE" filter="url(#f1xsbr4tu17a5g)" height="48" id="Position" style="stroke: #A80036; stroke-width: 1.5;" width="77" x="436" y="764"/><ellipse cx="451" cy="780" fill="#ADD1B2" rx="11" ry="11" style="stroke: #A80036; stroke-width: 1.0;"/><path d="M453.7656,775.875 Q453.9219,775.6563 454.1094,775.5469 Q454.2969,775.4375 454.5156,775.4375 Q454.8906,775.4375 455.125,775.6953 Q455.3594,775.9531 455.3594,776.5625 L455.3594,778.0156 Q455.3594,778.625 455.125,778.8906 Q454.8906,779.1563 454.5156,779.1563 Q454.1719,779.1563 453.9688,778.9531 Q453.7656,778.7656 453.6563,778.25 Q453.6094,777.8906 453.4219,777.7031 Q453.0938,777.3281 452.4844,777.1094 Q451.875,776.8906 451.25,776.8906 Q450.4844,776.8906 449.8516,777.2188 Q449.2188,777.5469 448.7266,778.2969 Q448.2344,779.0469 448.2344,780.0781 L448.2344,781.1719 Q448.2344,782.4063 449.125,783.2266 Q450.0156,784.0469 451.6094,784.0469 Q452.5469,784.0469 453.2031,783.7969 Q453.5938,783.6406 454.0156,783.2031 Q454.2813,782.9375 454.4297,782.8594 Q454.5781,782.7813 454.7813,782.7813 Q455.1094,782.7813 455.3672,783.0391 Q455.625,783.2969 455.625,783.6406 Q455.625,783.9844 455.2813,784.3906 Q454.7813,784.9688 453.9844,785.2969 Q452.9063,785.75 451.6094,785.75 Q450.0938,785.75 448.8906,785.125 Q447.9063,784.625 447.2188,783.5547 Q446.5313,782.4844 446.5313,781.2031 L446.5313,780.0469 Q446.5313,778.7188 447.1484,777.5703 Q447.7656,776.4219 448.8594,775.8047 Q449.9531,775.1875 451.1875,775.1875 Q451.9219,775.1875 452.5703,775.3516 Q453.2188,775.5156 453.7656,775.875 Z "/><text fill="#000000" font-family="sans-serif" font-size="12" lengthAdjust="spacingAndGlyphs" textLength="45" x="465" y="784.9102">Position</text><line style="stroke: #A80036; stroke-width: 1.5;" x1="437" x2="512" y1="796" y2="796"/><line style="stroke: #A80036; stroke-width: 1.5;" x1="437" x2="512" y1="804" y2="804"/><!--class Color--><rect fill="#FEFECE" filter="url(#f1xsbr4tu17a5g)" height="48" id="Color" style="stroke: #A80036; stroke-width: 1.5;" width="62" x="534.5" y="872"/><ellipse cx="549.5" cy="888" fill="#ADD1B2" rx="11" ry="11" style="stroke: #A80036; stroke-width: 1.0;"/><path d="M552.2656,883.875 Q552.4219,883.6563 552.6094,883.5469 Q552.7969,883.4375 553.0156,883.4375 Q553.3906,883.4375 553.625,883.6953 Q553.8594,883.9531 553.8594,884.5625 L553.8594,886.0156 Q553.8594,886.625 553.625,886.8906 Q553.3906,887.1563 553.0156,887.1563 Q552.6719,887.1563 552.4688,886.9531 Q552.2656,886.7656 552.1563,886.25 Q552.1094,885.8906 551.9219,885.7031 Q551.5938,885.3281 550.9844,885.1094 Q550.375,884.8906 549.75,884.8906 Q548.9844,884.8906 548.3516,885.2188 Q547.7188,885.5469 547.2266,886.2969 Q546.7344,887.0469 546.7344,888.0781 L546.7344,889.1719 Q546.7344,890.4063 547.625,891.2266 Q548.5156,892.0469 550.1094,892.0469 Q551.0469,892.0469 551.7031,891.7969 Q552.0938,891.6406 552.5156,891.2031 Q552.7813,890.9375 552.9297,890.8594 Q553.0781,890.7813 553.2813,890.7813 Q553.6094,890.7813 553.8672,891.0391 Q554.125,891.2969 554.125,891.6406 Q554.125,891.9844 553.7813,892.3906 Q553.2813,892.9688 552.4844,893.2969 Q551.4063,893.75 550.1094,893.75 Q548.5938,893.75 547.3906,893.125 Q546.4063,892.625 545.7188,891.5547 Q545.0313,890.4844 545.0313,889.2031 L545.0313,888.0469 Q545.0313,886.7188 545.6484,885.5703 Q546.2656,884.4219 547.3594,883.8047 Q548.4531,883.1875 549.6875,883.1875 Q550.4219,883.1875 551.0703,883.3516 Q551.7188,883.5156 552.2656,883.875 Z "/><text fill="#000000" font-family="sans-serif" font-size="12" lengthAdjust="spacingAndGlyphs" textLength="30" x="563.5" y="892.9102">Color</text><line style="stroke: #A80036; stroke-width: 1.5;" x1="535.5" x2="595.5" y1="904" y2="904"/><line style="stroke: #A80036; stroke-width: 1.5;" x1="535.5" x2="595.5" y1="912" y2="912"/><!--class Combination--><rect fill="#FEFECE" filter="url(#f1xsbr4tu17a5g)" height="48" id="Combination" style="stroke: #A80036; stroke-width: 1.5;" width="103" x="212" y="332"/><ellipse cx="227" cy="348" fill="#ADD1B2" rx="11" ry="11" style="stroke: #A80036; stroke-width: 1.0;"/><path d="M229.7656,343.875 Q229.9219,343.6563 230.1094,343.5469 Q230.2969,343.4375 230.5156,343.4375 Q230.8906,343.4375 231.125,343.6953 Q231.3594,343.9531 231.3594,344.5625 L231.3594,346.0156 Q231.3594,346.625 231.125,346.8906 Q230.8906,347.1563 230.5156,347.1563 Q230.1719,347.1563 229.9688,346.9531 Q229.7656,346.7656 229.6563,346.25 Q229.6094,345.8906 229.4219,345.7031 Q229.0938,345.3281 228.4844,345.1094 Q227.875,344.8906 227.25,344.8906 Q226.4844,344.8906 225.8516,345.2188 Q225.2188,345.5469 224.7266,346.2969 Q224.2344,347.0469 224.2344,348.0781 L224.2344,349.1719 Q224.2344,350.4063 225.125,351.2266 Q226.0156,352.0469 227.6094,352.0469 Q228.5469,352.0469 229.2031,351.7969 Q229.5938,351.6406 230.0156,351.2031 Q230.2813,350.9375 230.4297,350.8594 Q230.5781,350.7813 230.7813,350.7813 Q231.1094,350.7813 231.3672,351.0391 Q231.625,351.2969 231.625,351.6406 Q231.625,351.9844 231.2813,352.3906 Q230.7813,352.9688 229.9844,353.2969 Q228.9063,353.75 227.6094,353.75 Q226.0938,353.75 224.8906,353.125 Q223.9063,352.625 223.2188,351.5547 Q222.5313,350.4844 222.5313,349.2031 L222.5313,348.0469 Q222.5313,346.7188 223.1484,345.5703 Q223.7656,344.4219 224.8594,343.8047 Q225.9531,343.1875 227.1875,343.1875 Q227.9219,343.1875 228.5703,343.3516 Q229.2188,343.5156 229.7656,343.875 Z "/><text fill="#000000" font-family="sans-serif" font-size="12" lengthAdjust="spacingAndGlyphs" textLength="71" x="241" y="352.9102">Combination</text><line style="stroke: #A80036; stroke-width: 1.5;" x1="213" x2="314" y1="364" y2="364"/><line style="stroke: #A80036; stroke-width: 1.5;" x1="213" x2="314" y1="372" y2="372"/><!--class Red--><rect fill="#FEFECE" filter="url(#f1xsbr4tu17a5g)" height="48" id="Red" style="stroke: #A80036; stroke-width: 1.5;" width="55" x="298" y="980"/><ellipse cx="313" cy="996" fill="#ADD1B2" rx="11" ry="11" style="stroke: #A80036; stroke-width: 1.0;"/><path d="M315.7656,991.875 Q315.9219,991.6563 316.1094,991.5469 Q316.2969,991.4375 316.5156,991.4375 Q316.8906,991.4375 317.125,991.6953 Q317.3594,991.9531 317.3594,992.5625 L317.3594,994.0156 Q317.3594,994.625 317.125,994.8906 Q316.8906,995.1563 316.5156,995.1563 Q316.1719,995.1563 315.9688,994.9531 Q315.7656,994.7656 315.6563,994.25 Q315.6094,993.8906 315.4219,993.7031 Q315.0938,993.3281 314.4844,993.1094 Q313.875,992.8906 313.25,992.8906 Q312.4844,992.8906 311.8516,993.2188 Q311.2188,993.5469 310.7266,994.2969 Q310.2344,995.0469 310.2344,996.0781 L310.2344,997.1719 Q310.2344,998.4063 311.125,999.2266 Q312.0156,1000.0469 313.6094,1000.0469 Q314.5469,1000.0469 315.2031,999.7969 Q315.5938,999.6406 316.0156,999.2031 Q316.2813,998.9375 316.4297,998.8594 Q316.5781,998.7813 316.7813,998.7813 Q317.1094,998.7813 317.3672,999.0391 Q317.625,999.2969 317.625,999.6406 Q317.625,999.9844 317.2813,1000.3906 Q316.7813,1000.9688 315.9844,1001.2969 Q314.9063,1001.75 313.6094,1001.75 Q312.0938,1001.75 310.8906,1001.125 Q309.9063,1000.625 309.2188,999.5547 Q308.5313,998.4844 308.5313,997.2031 L308.5313,996.0469 Q308.5313,994.7188 309.1484,993.5703 Q309.7656,992.4219 310.8594,991.8047 Q311.9531,991.1875 313.1875,991.1875 Q313.9219,991.1875 314.5703,991.3516 Q315.2188,991.5156 315.7656,991.875 Z "/><text fill="#000000" font-family="sans-serif" font-size="12" lengthAdjust="spacingAndGlyphs" textLength="23" x="327" y="1000.9102">Red</text><line style="stroke: #A80036; stroke-width: 1.5;" x1="299" x2="352" y1="1012" y2="1012"/><line style="stroke: #A80036; stroke-width: 1.5;" x1="299" x2="352" y1="1020" y2="1020"/><!--class Blue--><rect fill="#FEFECE" filter="url(#f1xsbr4tu17a5g)" height="48" id="Blue" style="stroke: #A80036; stroke-width: 1.5;" width="57" x="388" y="980"/><ellipse cx="403" cy="996" fill="#ADD1B2" rx="11" ry="11" style="stroke: #A80036; stroke-width: 1.0;"/><path d="M405.7656,991.875 Q405.9219,991.6563 406.1094,991.5469 Q406.2969,991.4375 406.5156,991.4375 Q406.8906,991.4375 407.125,991.6953 Q407.3594,991.9531 407.3594,992.5625 L407.3594,994.0156 Q407.3594,994.625 407.125,994.8906 Q406.8906,995.1563 406.5156,995.1563 Q406.1719,995.1563 405.9688,994.9531 Q405.7656,994.7656 405.6563,994.25 Q405.6094,993.8906 405.4219,993.7031 Q405.0938,993.3281 404.4844,993.1094 Q403.875,992.8906 403.25,992.8906 Q402.4844,992.8906 401.8516,993.2188 Q401.2188,993.5469 400.7266,994.2969 Q400.2344,995.0469 400.2344,996.0781 L400.2344,997.1719 Q400.2344,998.4063 401.125,999.2266 Q402.0156,1000.0469 403.6094,1000.0469 Q404.5469,1000.0469 405.2031,999.7969 Q405.5938,999.6406 406.0156,999.2031 Q406.2813,998.9375 406.4297,998.8594 Q406.5781,998.7813 406.7813,998.7813 Q407.1094,998.7813 407.3672,999.0391 Q407.625,999.2969 407.625,999.6406 Q407.625,999.9844 407.2813,1000.3906 Q406.7813,1000.9688 405.9844,1001.2969 Q404.9063,1001.75 403.6094,1001.75 Q402.0938,1001.75 400.8906,1001.125 Q399.9063,1000.625 399.2188,999.5547 Q398.5313,998.4844 398.5313,997.2031 L398.5313,996.0469 Q398.5313,994.7188 399.1484,993.5703 Q399.7656,992.4219 400.8594,991.8047 Q401.9531,991.1875 403.1875,991.1875 Q403.9219,991.1875 404.5703,991.3516 Q405.2188,991.5156 405.7656,991.875 Z "/><text fill="#000000" font-family="sans-serif" font-size="12" lengthAdjust="spacingAndGlyphs" textLength="25" x="417" y="1000.9102">Blue</text><line style="stroke: #A80036; stroke-width: 1.5;" x1="389" x2="444" y1="1012" y2="1012"/><line style="stroke: #A80036; stroke-width: 1.5;" x1="389" x2="444" y1="1020" y2="1020"/><!--class Yellow--><rect fill="#FEFECE" filter="url(#f1xsbr4tu17a5g)" height="48" id="Yellow" style="stroke: #A80036; stroke-width: 1.5;" width="68" x="480.5" y="980"/><ellipse cx="495.5" cy="996" fill="#ADD1B2" rx="11" ry="11" style="stroke: #A80036; stroke-width: 1.0;"/><path d="M498.2656,991.875 Q498.4219,991.6563 498.6094,991.5469 Q498.7969,991.4375 499.0156,991.4375 Q499.3906,991.4375 499.625,991.6953 Q499.8594,991.9531 499.8594,992.5625 L499.8594,994.0156 Q499.8594,994.625 499.625,994.8906 Q499.3906,995.1563 499.0156,995.1563 Q498.6719,995.1563 498.4688,994.9531 Q498.2656,994.7656 498.1563,994.25 Q498.1094,993.8906 497.9219,993.7031 Q497.5938,993.3281 496.9844,993.1094 Q496.375,992.8906 495.75,992.8906 Q494.9844,992.8906 494.3516,993.2188 Q493.7188,993.5469 493.2266,994.2969 Q492.7344,995.0469 492.7344,996.0781 L492.7344,997.1719 Q492.7344,998.4063 493.625,999.2266 Q494.5156,1000.0469 496.1094,1000.0469 Q497.0469,1000.0469 497.7031,999.7969 Q498.0938,999.6406 498.5156,999.2031 Q498.7813,998.9375 498.9297,998.8594 Q499.0781,998.7813 499.2813,998.7813 Q499.6094,998.7813 499.8672,999.0391 Q500.125,999.2969 500.125,999.6406 Q500.125,999.9844 499.7813,1000.3906 Q499.2813,1000.9688 498.4844,1001.2969 Q497.4063,1001.75 496.1094,1001.75 Q494.5938,1001.75 493.3906,1001.125 Q492.4063,1000.625 491.7188,999.5547 Q491.0313,998.4844 491.0313,997.2031 L491.0313,996.0469 Q491.0313,994.7188 491.6484,993.5703 Q492.2656,992.4219 493.3594,991.8047 Q494.4531,991.1875 495.6875,991.1875 Q496.4219,991.1875 497.0703,991.3516 Q497.7188,991.5156 498.2656,991.875 Z "/><text fill="#000000" font-family="sans-serif" font-size="12" lengthAdjust="spacingAndGlyphs" textLength="36" x="509.5" y="1000.9102">Yellow</text><line style="stroke: #A80036; stroke-width: 1.5;" x1="481.5" x2="547.5" y1="1012" y2="1012"/><line style="stroke: #A80036; stroke-width: 1.5;" x1="481.5" x2="547.5" y1="1020" y2="1020"/><!--class Green--><rect fill="#FEFECE" filter="url(#f1xsbr4tu17a5g)" height="48" id="Green" style="stroke: #A80036; stroke-width: 1.5;" width="66" x="583.5" y="980"/><ellipse cx="598.5" cy="996" fill="#ADD1B2" rx="11" ry="11" style="stroke: #A80036; stroke-width: 1.0;"/><path d="M601.2656,991.875 Q601.4219,991.6563 601.6094,991.5469 Q601.7969,991.4375 602.0156,991.4375 Q602.3906,991.4375 602.625,991.6953 Q602.8594,991.9531 602.8594,992.5625 L602.8594,994.0156 Q602.8594,994.625 602.625,994.8906 Q602.3906,995.1563 602.0156,995.1563 Q601.6719,995.1563 601.4688,994.9531 Q601.2656,994.7656 601.1563,994.25 Q601.1094,993.8906 600.9219,993.7031 Q600.5938,993.3281 599.9844,993.1094 Q599.375,992.8906 598.75,992.8906 Q597.9844,992.8906 597.3516,993.2188 Q596.7188,993.5469 596.2266,994.2969 Q595.7344,995.0469 595.7344,996.0781 L595.7344,997.1719 Q595.7344,998.4063 596.625,999.2266 Q597.5156,1000.0469 599.1094,1000.0469 Q600.0469,1000.0469 600.7031,999.7969 Q601.0938,999.6406 601.5156,999.2031 Q601.7813,998.9375 601.9297,998.8594 Q602.0781,998.7813 602.2813,998.7813 Q602.6094,998.7813 602.8672,999.0391 Q603.125,999.2969 603.125,999.6406 Q603.125,999.9844 602.7813,1000.3906 Q602.2813,1000.9688 601.4844,1001.2969 Q600.4063,1001.75 599.1094,1001.75 Q597.5938,1001.75 596.3906,1001.125 Q595.4063,1000.625 594.7188,999.5547 Q594.0313,998.4844 594.0313,997.2031 L594.0313,996.0469 Q594.0313,994.7188 594.6484,993.5703 Q595.2656,992.4219 596.3594,991.8047 Q597.4531,991.1875 598.6875,991.1875 Q599.4219,991.1875 600.0703,991.3516 Q600.7188,991.5156 601.2656,991.875 Z "/><text fill="#000000" font-family="sans-serif" font-size="12" lengthAdjust="spacingAndGlyphs" textLength="34" x="612.5" y="1000.9102">Green</text><line style="stroke: #A80036; stroke-width: 1.5;" x1="584.5" x2="648.5" y1="1012" y2="1012"/><line style="stroke: #A80036; stroke-width: 1.5;" x1="584.5" x2="648.5" y1="1020" y2="1020"/><!--class Orange--><rect fill="#FEFECE" filter="url(#f1xsbr4tu17a5g)" height="48" id="Orange" style="stroke: #A80036; stroke-width: 1.5;" width="73" x="685" y="980"/><ellipse cx="700" cy="996" fill="#ADD1B2" rx="11" ry="11" style="stroke: #A80036; stroke-width: 1.0;"/><path d="M702.7656,991.875 Q702.9219,991.6563 703.1094,991.5469 Q703.2969,991.4375 703.5156,991.4375 Q703.8906,991.4375 704.125,991.6953 Q704.3594,991.9531 704.3594,992.5625 L704.3594,994.0156 Q704.3594,994.625 704.125,994.8906 Q703.8906,995.1563 703.5156,995.1563 Q703.1719,995.1563 702.9688,994.9531 Q702.7656,994.7656 702.6563,994.25 Q702.6094,993.8906 702.4219,993.7031 Q702.0938,993.3281 701.4844,993.1094 Q700.875,992.8906 700.25,992.8906 Q699.4844,992.8906 698.8516,993.2188 Q698.2188,993.5469 697.7266,994.2969 Q697.2344,995.0469 697.2344,996.0781 L697.2344,997.1719 Q697.2344,998.4063 698.125,999.2266 Q699.0156,1000.0469 700.6094,1000.0469 Q701.5469,1000.0469 702.2031,999.7969 Q702.5938,999.6406 703.0156,999.2031 Q703.2813,998.9375 703.4297,998.8594 Q703.5781,998.7813 703.7813,998.7813 Q704.1094,998.7813 704.3672,999.0391 Q704.625,999.2969 704.625,999.6406 Q704.625,999.9844 704.2813,1000.3906 Q703.7813,1000.9688 702.9844,1001.2969 Q701.9063,1001.75 700.6094,1001.75 Q699.0938,1001.75 697.8906,1001.125 Q696.9063,1000.625 696.2188,999.5547 Q695.5313,998.4844 695.5313,997.2031 L695.5313,996.0469 Q695.5313,994.7188 696.1484,993.5703 Q696.7656,992.4219 697.8594,991.8047 Q698.9531,991.1875 700.1875,991.1875 Q700.9219,991.1875 701.5703,991.3516 Q702.2188,991.5156 702.7656,991.875 Z "/><text fill="#000000" font-family="sans-serif" font-size="12" lengthAdjust="spacingAndGlyphs" textLength="41" x="714" y="1000.9102">Orange</text><line style="stroke: #A80036; stroke-width: 1.5;" x1="686" x2="757" y1="1012" y2="1012"/><line style="stroke: #A80036; stroke-width: 1.5;" x1="686" x2="757" y1="1020" y2="1020"/><!--class Purple--><rect fill="#FEFECE" filter="url(#f1xsbr4tu17a5g)" height="48" id="Purple" style="stroke: #A80036; stroke-width: 1.5;" width="68" x="793.5" y="980"/><ellipse cx="808.5" cy="996" fill="#ADD1B2" rx="11" ry="11" style="stroke: #A80036; stroke-width: 1.0;"/><path d="M811.2656,991.875 Q811.4219,991.6563 811.6094,991.5469 Q811.7969,991.4375 812.0156,991.4375 Q812.3906,991.4375 812.625,991.6953 Q812.8594,991.9531 812.8594,992.5625 L812.8594,994.0156 Q812.8594,994.625 812.625,994.8906 Q812.3906,995.1563 812.0156,995.1563 Q811.6719,995.1563 811.4688,994.9531 Q811.2656,994.7656 811.1563,994.25 Q811.1094,993.8906 810.9219,993.7031 Q810.5938,993.3281 809.9844,993.1094 Q809.375,992.8906 808.75,992.8906 Q807.9844,992.8906 807.3516,993.2188 Q806.7188,993.5469 806.2266,994.2969 Q805.7344,995.0469 805.7344,996.0781 L805.7344,997.1719 Q805.7344,998.4063 806.625,999.2266 Q807.5156,1000.0469 809.1094,1000.0469 Q810.0469,1000.0469 810.7031,999.7969 Q811.0938,999.6406 811.5156,999.2031 Q811.7813,998.9375 811.9297,998.8594 Q812.0781,998.7813 812.2813,998.7813 Q812.6094,998.7813 812.8672,999.0391 Q813.125,999.2969 813.125,999.6406 Q813.125,999.9844 812.7813,1000.3906 Q812.2813,1000.9688 811.4844,1001.2969 Q810.4063,1001.75 809.1094,1001.75 Q807.5938,1001.75 806.3906,1001.125 Q805.4063,1000.625 804.7188,999.5547 Q804.0313,998.4844 804.0313,997.2031 L804.0313,996.0469 Q804.0313,994.7188 804.6484,993.5703 Q805.2656,992.4219 806.3594,991.8047 Q807.4531,991.1875 808.6875,991.1875 Q809.4219,991.1875 810.0703,991.3516 Q810.7188,991.5156 811.2656,991.875 Z "/><text fill="#000000" font-family="sans-serif" font-size="12" lengthAdjust="spacingAndGlyphs" textLength="36" x="822.5" y="1000.9102">Purple</text><line style="stroke: #A80036; stroke-width: 1.5;" x1="794.5" x2="860.5" y1="1012" y2="1012"/><line style="stroke: #A80036; stroke-width: 1.5;" x1="794.5" x2="860.5" y1="1020" y2="1020"/><!--link Mastermind to Board--><path d="M453.34,68.688 C466.468,108.255 487.518,171.702 500.649,211.281 " fill="none" id="Mastermind-Board" style="stroke: #A80036; stroke-width: 1.0;"/><polygon fill="#A80036" points="504.776,223.72,505.738,213.9182,503.2013,218.9744,498.1451,216.4378,504.776,223.72" style="stroke: #A80036; stroke-width: 1.0;"/><line style="stroke: #A80036; stroke-width: 1.0;" x1="503.2013" x2="500.6825" y1="218.9744" y2="211.381"/><polygon fill="#A80036" points="449.233,56.309,447.3262,63.2634,453.0123,67.6983,454.9191,60.7439,449.233,56.309" style="stroke: #A80036; stroke-width: 1.0;"/><!--link Mastermind to Turn--><path d="M415.55,66.545 C405.983,78.912 395.147,92.919 385.57,105.3 " fill="none" id="Mastermind-Turn" style="stroke: #A80036; stroke-width: 1.0;"/><polygon fill="#A80036" points="377.541,115.678,386.2119,111.0073,380.6005,111.7234,379.8844,106.112,377.541,115.678" style="stroke: #A80036; stroke-width: 1.0;"/><line style="stroke: #A80036; stroke-width: 1.0;" x1="380.6005" x2="385.4955" y1="111.7234" y2="105.396"/><polygon fill="#A80036" points="423.707,56,416.872,58.2984,416.3648,65.4916,423.1998,63.1932,423.707,56" style="stroke: #A80036; stroke-width: 1.0;"/><!--link Mastermind to Player--><path d="M431.751,68.977 C424.581,95.316 414.548,131.91 405.5,164 C401.137,179.475 396.22,196.542 391.978,211.155 " fill="none" id="Mastermind-Player" style="stroke: #A80036; stroke-width: 1.0;"/><polygon fill="#A80036" points="388.307,223.769,394.6628,216.2455,389.7043,218.9682,386.9816,214.0097,388.307,223.769" style="stroke: #A80036; stroke-width: 1.0;"/><line style="stroke: #A80036; stroke-width: 1.0;" x1="389.7043" x2="391.9395" y1="218.9682" y2="211.2865"/><polygon fill="#A80036" points="435.22,56.216,429.7863,60.9568,432.0725,67.7959,437.5062,63.0551,435.22,56.216" style="stroke: #A80036; stroke-width: 1.0;"/><text fill="#000000" font-family="sans-serif" font-size="13" lengthAdjust="spacingAndGlyphs" textLength="7" x="382.1544" y="213.05">2</text><!--link Turn to Player--><path d="M364.274,164 C367.595,180.003 372.045,201.446 375.591,218.528 " fill="none" id="Turn-Player" style="stroke: #A80036; stroke-width: 1.0;"/><polygon fill="#A80036" points="376.66,223.678,378.7483,214.0531,375.6443,218.7823,370.9151,215.6782,376.66,223.678" style="stroke: #A80036; stroke-width: 1.0;"/><text fill="#000000" font-family="sans-serif" font-size="13" lengthAdjust="spacingAndGlyphs" textLength="7" x="367.6271" y="213.3375">2</text><!--link Player to MakerPlayer--><path d="M329.164,266.017 C267.419,286.094 165.533,319.223 105.0332,338.894 " fill="none" id="Player-MakerPlayer" style="stroke: #A80036; stroke-width: 1.0;"/><polygon fill="none" points="327.263,259.275,348.447,259.747,331.592,272.589,327.263,259.275" style="stroke: #A80036; stroke-width: 1.0;"/><!--link Player to BreakerPlayer--><path d="M390.835,292.024 C393.777,305.579 396.914,320.038 399.44,331.678 " fill="none" id="Player-BreakerPlayer" style="stroke: #A80036; stroke-width: 1.0;"/><polygon fill="none" points="383.891,293.03,386.491,272,397.572,290.061,383.891,293.03" style="stroke: #A80036; stroke-width: 1.0;"/><!--link BreakerPlayer to Goal--><path d="M393.434,380 C385.668,396.141 375.239,417.816 366.987,434.969 " fill="none" id="BreakerPlayer-Goal" style="stroke: #A80036; stroke-width: 1.0;"/><polygon fill="#A80036" points="364.721,439.678,372.2284,433.3031,366.8894,435.1727,365.0198,429.8337,364.721,439.678" style="stroke: #A80036; stroke-width: 1.0;"/><!--link Goal to WinnerResult--><path d="M394.981,501.338 C412.495,516.681 432.376,534.098 447.878,547.678 " fill="none" id="Goal-WinnerResult" style="stroke: #A80036; stroke-width: 1.0;"/><polygon fill="none" points="390.186,506.445,379.755,488,399.412,495.914,390.186,506.445" style="stroke: #A80036; stroke-width: 1.0;"/><!--link Result to WinnerResult--><path d="M606.38,400.497 C608.481,427.334 607.137,461.56 592.5,488 C577.943,514.295 551.106,534.176 526.699,547.878 " fill="none" id="Result-WinnerResult" style="stroke: #A80036; stroke-width: 1.0;"/><polygon fill="none" points="599.404,401.104,604.083,380.438,613.313,399.512,599.404,401.104" style="stroke: #A80036; stroke-width: 1.0;"/><!--link Result to SecretCombination--><path d="M565.308,365.054 C492.796,382.135 322.174,422.326 223.502,445.569 " fill="none" id="Result-SecretCombination" style="stroke: #A80036; stroke-width: 1.0;"/><polygon fill="#A80036" points="218.567,446.731,228.2446,448.5597,223.4337,445.584,226.4094,440.773,218.567,446.731" style="stroke: #A80036; stroke-width: 1.0;"/><!--link Result to ProposedCombination--><path d="M577.151,380 C561.199,396.417 539.683,418.559 522.887,435.844 " fill="none" id="Result-ProposedCombination" style="stroke: #A80036; stroke-width: 1.0;"/><polygon fill="#A80036" points="519.162,439.678,528.3027,436.011,522.6465,436.0921,522.5653,430.4358,519.162,439.678" style="stroke: #A80036; stroke-width: 1.0;"/><!--link WinnerResult to Black--><path d="M474.5,609.338 C474.5,620.006 474.5,631.677 474.5,642.364 " fill="none" id="WinnerResult-Black" style="stroke: #A80036; stroke-width: 1.0;"/><polygon fill="#A80036" points="474.5,655.678,478.5,646.678,474.5,650.678,470.5,646.678,474.5,655.678" style="stroke: #A80036; stroke-width: 1.0;"/><line style="stroke: #A80036; stroke-width: 1.0;" x1="474.5" x2="474.5" y1="650.678" y2="642.678"/><polygon fill="#A80036" points="474.5,596,470.5,602,474.5,608,478.5,602,474.5,596" style="stroke: #A80036; stroke-width: 1.0;"/><text fill="#000000" font-family="sans-serif" font-size="13" lengthAdjust="spacingAndGlyphs" textLength="7" x="466.6469" y="645.3375">4</text><!--link MakerPlayer to SecretCombination--><path d="M75.8966,380 C90.4545,396.417 110.09,418.559 125.419,435.844 " fill="none" id="MakerPlayer-SecretCombination" style="stroke: #A80036; stroke-width: 1.0;"/><polygon fill="#A80036" points="128.819,439.678,125.8376,430.2912,125.5005,435.938,119.8537,435.6009,128.819,439.678" style="stroke: #A80036; stroke-width: 1.0;"/><!--link BreakerPlayer to ProposedCombination--><path d="M424.463,380 C438.711,396.417 457.928,418.559 472.931,435.844 " fill="none" id="BreakerPlayer-ProposedCombination" style="stroke: #A80036; stroke-width: 1.0;"/><polygon fill="#A80036" points="476.259,439.678,473.3805,430.2592,472.9816,435.902,467.3388,435.5031,476.259,439.678" style="stroke: #A80036; stroke-width: 1.0;"/><text fill="#000000" font-family="sans-serif" font-size="13" lengthAdjust="spacingAndGlyphs" textLength="29" x="438.7909" y="429.3375">0..10</text><!--link Board to SecretCombination--><path d="M467.196,262.112 C455.579,265.406 443.091,268.888 431.5,272 C326.56,300.176 274.451,258.419 194.5,332 C167.997,356.391 157.103,397.084 152.625,426.654 " fill="none" id="Board-SecretCombination" style="stroke: #A80036; stroke-width: 1.0;"/><polygon fill="#A80036" points="150.943,439.757,156.0567,431.3397,151.5798,434.7977,148.1218,430.3208,150.943,439.757" style="stroke: #A80036; stroke-width: 1.0;"/><line style="stroke: #A80036; stroke-width: 1.0;" x1="151.5798" x2="152.598" y1="434.7977" y2="426.8625"/><polygon fill="#A80036" points="479.847,258.502,472.9797,256.3018,468.3076,261.7946,475.1748,263.9948,479.847,258.502" style="stroke: #A80036; stroke-width: 1.0;"/><!--link Board to ProposedCombination--><path d="M509.768,285.544 C506.823,324.935 502.163,387.26 499.222,426.596 " fill="none" id="Board-ProposedCombination" style="stroke: #A80036; stroke-width: 1.0;"/><polygon fill="#A80036" points="498.241,439.72,502.9005,431.0431,498.6136,434.7339,494.9227,430.447,498.241,439.72" style="stroke: #A80036; stroke-width: 1.0;"/><line style="stroke: #A80036; stroke-width: 1.0;" x1="498.6136" x2="499.21" y1="434.7339" y2="426.756"/><polygon fill="#FFFFFF" points="510.757,272.309,506.3211,277.9943,509.8629,284.2756,514.2988,278.5904,510.757,272.309" style="stroke: #A80036; stroke-width: 1.0;"/><text fill="#000000" font-family="sans-serif" font-size="13" lengthAdjust="spacingAndGlyphs" textLength="29" x="502.4028" y="428.9884">0..10</text><!--link Board to Result--><path d="M539.654,282.084 C549.971,294.654 561.723,308.973 572.065,321.574 " fill="none" id="Board-Result" style="stroke: #A80036; stroke-width: 1.0;"/><polygon fill="#A80036" points="580.359,331.678,577.7412,322.1834,577.1869,327.813,571.5573,327.2587,580.359,331.678" style="stroke: #A80036; stroke-width: 1.0;"/><line style="stroke: #A80036; stroke-width: 1.0;" x1="577.1869" x2="572.111" y1="327.813" y2="321.6295"/><polygon fill="#FFFFFF" points="531.378,272,532.0925,279.1756,538.991,281.2759,538.2765,274.1003,531.378,272" style="stroke: #A80036; stroke-width: 1.0;"/><text fill="#000000" font-family="sans-serif" font-size="13" lengthAdjust="spacingAndGlyphs" textLength="29" x="543.159" y="321.3375">0..10</text><!--link Result to Success--><path d="M628.424,390.814 C638.774,405.039 649.188,422.369 654.5,440 C664.072,471.773 655.369,509.092 645.873,535.754 " fill="none" id="Result-Success" style="stroke: #A80036; stroke-width: 1.0;"/><polygon fill="#A80036" points="641.224,547.915,648.1744,540.9371,643.0097,543.2447,640.702,538.08,641.224,547.915" style="stroke: #A80036; stroke-width: 1.0;"/><line style="stroke: #A80036; stroke-width: 1.0;" x1="643.0097" x2="645.866" y1="543.2447" y2="535.772"/><polygon fill="#A80036" points="620.235,380.123,620.7084,387.3185,627.5325,389.6491,627.0591,382.4535,620.235,380.123" style="stroke: #A80036; stroke-width: 1.0;"/><text fill="#000000" font-family="sans-serif" font-size="13" lengthAdjust="spacingAndGlyphs" textLength="22" x="619.1533" y="537.2334">0..4</text><!--link Success to Black--><path d="M580.102,607.245 C555.595,623.897 526.915,643.385 505.633,657.846 " fill="none" id="Success-Black" style="stroke: #A80036; stroke-width: 1.0;"/><polygon fill="none" points="576.174,601.451,596.65,596,584.042,613.031,576.174,601.451" style="stroke: #A80036; stroke-width: 1.0;"/><!--link Success to White--><path d="M608.278,613.613 C600.489,627.848 592.009,643.345 585.261,655.678 " fill="none" id="Success-White" style="stroke: #A80036; stroke-width: 1.0;"/><polygon fill="none" points="602.174,610.186,617.915,596,614.455,616.906,602.174,610.186" style="stroke: #A80036; stroke-width: 1.0;"/><!--link Black to Position--><path d="M474.5,704 C474.5,720.003 474.5,741.446 474.5,758.528 " fill="none" id="Black-Position" style="stroke: #A80036; stroke-width: 1.0;"/><polygon fill="#A80036" points="474.5,763.678,478.5,754.678,474.5,758.678,470.5,754.678,474.5,763.678" style="stroke: #A80036; stroke-width: 1.0;"/><!--link Success to Color--><path d="M630.414,596.376 C629.967,622.726 628.159,666.748 621.5,704 C610.908,763.25 588.805,830.293 575.759,867.096 " fill="none" id="Success-Color" style="stroke: #A80036; stroke-width: 1.0;"/><polygon fill="#A80036" points="574.058,871.867,580.8472,864.7321,575.7365,867.1572,573.3115,862.0465,574.058,871.867" style="stroke: #A80036; stroke-width: 1.0;"/><!--link Combination to Position--><path d="M273.278,392.769 C281.05,419.486 292.857,456.642 306.5,488 C350.226,588.505 371.189,608.797 425.5,704 C434.66,720.056 445.038,737.711 453.879,752.594 " fill="none" id="Combination-Position" style="stroke: #A80036; stroke-width: 1.0;"/><polygon fill="#A80036" points="460.586,763.853,459.4167,754.0738,458.0272,759.5574,452.5436,758.1679,460.586,763.853" style="stroke: #A80036; stroke-width: 1.0;"/><line style="stroke: #A80036; stroke-width: 1.0;" x1="458.0272" x2="453.932" y1="759.5574" y2="752.6845"/><polygon fill="#A80036" points="269.695,380.2,267.4934,387.0668,272.9852,391.7401,275.1868,384.8733,269.695,380.2" style="stroke: #A80036; stroke-width: 1.0;"/><text fill="#000000" font-family="sans-serif" font-size="13" lengthAdjust="spacingAndGlyphs" textLength="7" x="449.1237" y="753.1555">4</text><!--link Position to Color--><path d="M502.903,822.084 C513.694,834.654 525.986,848.973 536.804,861.574 " fill="none" id="Position-Color" style="stroke: #A80036; stroke-width: 1.0;"/><polygon fill="#A80036" points="545.479,871.678,542.6523,862.2435,542.2224,867.884,536.5819,867.4541,545.479,871.678" style="stroke: #A80036; stroke-width: 1.0;"/><line style="stroke: #A80036; stroke-width: 1.0;" x1="542.2224" x2="537.0105" y1="867.884" y2="861.8145"/><polygon fill="#FFFFFF" points="494.246,812,495.1194,819.158,502.0627,821.1049,501.1893,813.9469,494.246,812" style="stroke: #A80036; stroke-width: 1.0;"/><!--link Combination to SecretCombination--><path d="M223.913,393.809 C207.536,409.036 189.038,426.237 174.582,439.678 " fill="none" id="Combination-SecretCombination" style="stroke: #A80036; stroke-width: 1.0;"/><polygon fill="none" points="219.35,388.493,238.764,380,228.884,398.746,219.35,388.493" style="stroke: #A80036; stroke-width: 1.0;"/><!--link Combination to ProposedCombination--><path d="M332.275,388.288 C368.6,404.814 412.408,424.744 445.639,439.862 " fill="none" id="Combination-ProposedCombination" style="stroke: #A80036; stroke-width: 1.0;"/><polygon fill="none" points="329.363,394.654,314.058,380,335.161,381.911,329.363,394.654" style="stroke: #A80036; stroke-width: 1.0;"/><!--link Color to Red--><path d="M515.691,917.073 C476.035,933.3238 419.286,957.1842 370.5,980 C364.937,982.6018 359.051,985.5004 353.436,988.339 " fill="none" id="Color-Red" style="stroke: #A80036; stroke-width: 1.0;"/><polygon fill="none" points="513.308,910.485,534.471,909.422,518.59,923.45,513.308,910.485" style="stroke: #A80036; stroke-width: 1.0;"/><!--link Color to Blue--><path d="M517.776,930.9516 C493.868,947.9597 465.717,967.9866 445.171,982.6033 " fill="none" id="Color-Blue" style="stroke: #A80036; stroke-width: 1.0;"/><polygon fill="none" points="513.91,925.111,534.265,919.221,522.026,936.5187,513.91,925.111" style="stroke: #A80036; stroke-width: 1.0;"/><!--link Color to Yellow--><path d="M545.729,938.0936 C538.944,952.1958 531.588,967.4838 525.721,979.6784 " fill="none" id="Color-Yellow" style="stroke: #A80036; stroke-width: 1.0;"/><polygon fill="none" points="539.455,934.988,554.434,920,552.07,941.0579,539.455,934.988" style="stroke: #A80036; stroke-width: 1.0;"/><!--link Color to Green--><path d="M585.271,938.0936 C592.056,952.1958 599.412,967.4838 605.279,979.6784 " fill="none" id="Color-Green" style="stroke: #A80036; stroke-width: 1.0;"/><polygon fill="none" points="578.93,941.0579,576.566,920,591.545,934.988,578.93,941.0579" style="stroke: #A80036; stroke-width: 1.0;"/><!--link Color to Orange--><path d="M613.534,929.6384 C637.427,945.8733 665.744,965.1143 687.382,979.8172 " fill="none" id="Color-Orange" style="stroke: #A80036; stroke-width: 1.0;"/><polygon fill="none" points="609.302,935.2262,596.694,918.196,617.171,923.646,609.302,935.2262" style="stroke: #A80036; stroke-width: 1.0;"/><!--link Color to Purple--><path d="M615.539,916.129 C658.229,932.6026 721.147,957.2492 775.5,980 C781.328,982.4394 787.492,985.0966 793.459,987.7102 " fill="none" id="Color-Purple" style="stroke: #A80036; stroke-width: 1.0;"/><polygon fill="none" points="612.767,922.562,596.613,908.849,617.793,909.496,612.767,922.562" style="stroke: #A80036; stroke-width: 1.0;"/><!--
@startuml
Mastermind *-down-> Board
Mastermind *-down-> Turn
Mastermind *-down-> "2" Player

Turn -down-> "2" Player
Player <|-down- MakerPlayer
Player <|-down- BreakerPlayer

BreakerPlayer -down-> Goal

Goal <|-down- WinnerResult

Result <|-down- WinnerResult

Result - -> SecretCombination
Result - -> ProposedCombination

WinnerResult *-down-> "4" Black

MakerPlayer -down-> SecretCombination
BreakerPlayer -down-> "0..10" ProposedCombination

Board *-down-> SecretCombination
Board o-down-> "0..10" ProposedCombination
Board o-down-> "0..10" Result

Result *-down-> "0..4" Success
Success <|-down- Black
Success <|-down- White

Black - -> Position
Success - -> Color

Combination *-down-> "4" Position
Position o-down-> Color
Combination <|-down- SecretCombination
Combination <|-down- ProposedCombination

Color <|-down- Red
Color <|-down- Blue
Color <|-down- Yellow
Color <|-down- Green
Color <|-down- Orange
Color <|-down- Purple
@enduml

PlantUML version 1.2019.05(Sat Apr 20 18:45:36 CEST 2019)
(GPL source distribution)
Java Runtime: OpenJDK Runtime Environment
JVM: OpenJDK 64-Bit Server VM
Java Version: 1.8.0_222-b10
Operating System: Windows 10
OS Version: 10.0
Default Encoding: windows-1252
Language: es
Country: ES
--></g></svg>